<?xml version="1.0" encoding="utf-8"?>
<!-- Generator: Adobe Illustrator 16.0.3, SVG Export Plug-In . SVG Version: 6.00 Build 0)  -->
<!DOCTYPE svg PUBLIC "-//W3C//DTD SVG 1.1//EN" "http://www.w3.org/Graphics/SVG/1.1/DTD/svg11.dtd">
<svg version="1.1" id="Layer_1" xmlns="http://www.w3.org/2000/svg" xmlns:xlink="http://www.w3.org/1999/xlink" x="0px" y="0px"
	 width="128px" height="128px" viewBox="0 0 128 128" enable-background="new 0 0 128 128" xml:space="preserve">
<g>
	<path d="M91.002,97.977"/>
	<path d="M91.006,30.024"/>
	<path d="M21.571,64c0-18.765,11.229-33.976,25.081-33.976h44.354C82.846,13.28,68.849,2.214,52.93,2.214
		C27.738,2.214,7.318,29.876,7.318,64c0,34.123,20.42,61.787,45.612,61.787c15.917,0,29.916-11.065,38.072-27.81h-44.35
		C32.8,97.977,21.571,82.766,21.571,64z"/>
</g>
<path d="M120.678,64c0,12.799-3.457,23.171-7.723,23.171S117.08,76.799,117.08,64c0-12.797-8.391-23.169-4.125-23.169
	S120.678,51.202,120.678,64z"/>
<path d="M108.511,64c0,9.454-2.554,17.116-5.705,17.116c-3.15,0,3.048-7.662,3.048-17.116c0-9.454-6.198-17.115-3.048-17.115
	C105.957,46.885,108.511,54.546,108.511,64z"/>
<path d="M99.262,64c0,6.589-1.779,11.928-3.976,11.928c-2.195,0,2.124-5.339,2.124-11.928c0-6.588-4.319-11.927-2.124-11.927
	C97.482,52.073,99.262,57.412,99.262,64z"/>
</svg>
